<!--?xml version="1.0" standalone="no"?-->
              <svg id="sw-js-blob-svg" viewBox="0 0 100 100" xmlns="http://www.w3.org/2000/svg" version="1.1">
                    <defs> 
                        <linearGradient id="sw-gradient" x1="0" x2="1" y1="1" y2="0">
                            <stop id="stop1" stop-color="rgba(231.762, 55, 248, 1)" offset="0%"></stop>
                            <stop id="stop2" stop-color="rgba(97.584, 31, 251, 1)" offset="100%"></stop>
                        </linearGradient>
                    </defs>
                <path fill="url(#sw-gradient)" d="M17.9,-25.8C19.5,-20,14.5,-10.9,16.3,-2.6C18,5.6,26.5,12.9,27.7,20.8C28.9,28.7,22.8,37.2,15.7,37.2C8.7,37.2,0.7,28.7,-8.4,24.6C-17.4,20.6,-27.4,21.1,-33.2,16.5C-39,11.9,-40.5,2.3,-36.9,-4.5C-33.3,-11.2,-24.5,-15,-17.5,-19.8C-10.5,-24.5,-5.3,-30.3,1.5,-32C8.2,-33.7,16.4,-31.5,17.9,-25.8Z" width="100%" height="100%" transform="translate(50 50)" stroke-width="0" style="transition: all 0.3s ease 0s;" stroke="url(#sw-gradient)"></path>
              </svg>