<!--?xml version="1.0" standalone="no"?-->
              <svg id="sw-js-blob-svg" viewBox="0 0 100 100" xmlns="http://www.w3.org/2000/svg" version="1.1">
                    <defs> 
                        <linearGradient id="sw-gradient" x1="0" x2="1" y1="1" y2="0">
                            <stop id="stop1" stop-color="rgba(231.762, 55, 248, 1)" offset="0%"></stop>
                            <stop id="stop2" stop-color="rgba(97.584, 31, 251, 1)" offset="100%"></stop>
                        </linearGradient>
                    </defs>
                <path fill="url(#sw-gradient)" d="M24.8,-29.4C32.3,-23.3,38.6,-15.6,39.3,-7.5C40,0.6,35.2,9,29.9,16.4C24.6,23.8,18.9,30,11.8,32.9C4.6,35.8,-4,35.3,-13.3,33.3C-22.6,31.4,-32.4,27.9,-36.1,21.1C-39.8,14.3,-37.3,4.1,-35.1,-5.8C-32.8,-15.6,-30.9,-25.1,-25.1,-31.4C-19.4,-37.8,-9.7,-40.9,-0.5,-40.3C8.7,-39.7,17.4,-35.4,24.8,-29.4Z" width="100%" height="100%" transform="translate(50 50)" stroke-width="0" style="transition: all 0.3s ease 0s;" stroke="url(#sw-gradient)"></path>
              </svg>