<!--?xml version="1.0" standalone="no"?-->
              <svg id="sw-js-blob-svg" viewBox="0 0 100 100" xmlns="http://www.w3.org/2000/svg" version="1.1">
                    <defs> 
                        <linearGradient id="sw-gradient" x1="0" x2="1" y1="1" y2="0">
                            <stop id="stop1" stop-color="rgba(199.069, 55, 248, 1)" offset="0%"></stop>
                            <stop id="stop2" stop-color="rgba(37.956, 31, 251, 1)" offset="100%"></stop>
                        </linearGradient>
                    </defs>
                <path fill="url(#sw-gradient)" d="M19.2,-32.3C25.9,-29.4,33,-26.3,37.5,-20.9C41.9,-15.5,43.6,-7.7,42.5,-0.6C41.4,6.5,37.5,12.9,33.8,19.6C30.1,26.3,26.7,33.3,21.1,38.2C15.5,43.1,7.7,46,0.5,45.2C-6.8,44.5,-13.7,40,-19.5,35.2C-25.3,30.4,-30.2,25.3,-34.1,19.4C-38.1,13.5,-41.2,6.7,-40.8,0.2C-40.5,-6.3,-36.7,-12.7,-33.1,-19.1C-29.4,-25.6,-25.9,-32.1,-20.4,-35.7C-14.9,-39.3,-7.4,-39.9,-0.6,-38.9C6.3,-37.9,12.5,-35.2,19.2,-32.3Z" width="100%" height="100%" transform="translate(50 50)" stroke-width="0" style="transition: all 0.3s ease 0s;" stroke="url(#sw-gradient)"></path>
              </svg>