<!--?xml version="1.0" standalone="no"?-->
              <svg id="sw-js-blob-svg" viewBox="0 0 100 100" xmlns="http://www.w3.org/2000/svg" version="1.1">
                    <defs> 
                        <linearGradient id="sw-gradient" x1="0" x2="1" y1="1" y2="0">
                            <stop id="stop1" stop-color="rgba(199.069, 55, 248, 1)" offset="0%"></stop>
                            <stop id="stop2" stop-color="rgba(37.956, 31, 251, 1)" offset="100%"></stop>
                        </linearGradient>
                    </defs>
                <path fill="url(#sw-gradient)" d="M18.3,-35.7C21.4,-29.9,20.1,-20.4,20.1,-13.8C20,-7.2,21.2,-3.6,23.3,1.2C25.4,6,28.4,12.1,27.6,17.2C26.9,22.4,22.4,26.7,17.1,30.5C11.9,34.4,6,37.8,1.3,35.6C-3.4,33.4,-6.9,25.6,-14,22.9C-21.1,20.1,-32,22.4,-34.8,19.5C-37.6,16.5,-32.4,8.2,-30.3,1.2C-28.1,-5.8,-29.1,-11.5,-27.7,-17.1C-26.4,-22.7,-22.9,-28,-17.9,-32.8C-12.9,-37.6,-6.4,-41.8,0.6,-42.8C7.6,-43.8,15.1,-41.6,18.3,-35.7Z" width="100%" height="100%" transform="translate(50 50)" stroke-width="0" style="transition: all 0.3s ease 0s;" stroke="url(#sw-gradient)"></path>
              </svg>