<!--?xml version="1.0" standalone="no"?-->
              <svg id="sw-js-blob-svg" viewBox="0 0 100 100" xmlns="http://www.w3.org/2000/svg" version="1.1">
                    <defs> 
                        <linearGradient id="sw-gradient" x1="0" x2="1" y1="1" y2="0">
                            <stop id="stop1" stop-color="rgba(199.069, 55, 248, 1)" offset="0%"></stop>
                            <stop id="stop2" stop-color="rgba(37.956, 31, 251, 1)" offset="100%"></stop>
                        </linearGradient>
                    </defs>
                <path fill="url(#sw-gradient)" d="M19.7,-35.9C23.7,-31.7,23.9,-22.8,27.7,-16.1C31.6,-9.3,39,-4.6,41.4,1.4C43.8,7.4,41.1,14.8,35.8,19.1C30.6,23.5,22.8,24.8,16.4,28.1C10,31.4,5,36.8,-1.5,39.5C-8.1,42.1,-16.2,42.1,-22.8,38.9C-29.3,35.6,-34.2,29.1,-34.5,22.1C-34.8,15.1,-30.5,7.5,-29.6,0.5C-28.7,-6.5,-31.3,-13.1,-30,-18.2C-28.6,-23.4,-23.2,-27.2,-17.6,-30.4C-11.9,-33.7,-6,-36.4,0.9,-38C7.8,-39.6,15.6,-40.1,19.7,-35.9Z" width="100%" height="100%" transform="translate(50 50)" stroke-width="0" style="transition: all 0.3s ease 0s;" stroke="url(#sw-gradient)"></path>
              </svg>