<!--?xml version="1.0" standalone="no"?-->
              <svg id="sw-js-blob-svg" viewBox="0 0 100 100" xmlns="http://www.w3.org/2000/svg" version="1.1">
                    <defs> 
                        <linearGradient id="sw-gradient" x1="0" x2="1" y1="1" y2="0">
                            <stop id="stop1" stop-color="rgba(248, 55, 231.545, 1)" offset="0%"></stop>
                            <stop id="stop2" stop-color="rgba(31, 31.497, 251, 1)" offset="100%"></stop>
                        </linearGradient>
                    </defs>
                <path fill="url(#sw-gradient)" d="M14.3,-24.9C17.6,-22.9,18.6,-17.1,20.2,-12.3C21.9,-7.6,24.1,-3.8,23.6,-0.3C23.1,3.2,19.8,6.3,19.4,13.3C19,20.3,21.6,31.1,18.9,35.2C16.1,39.3,8.1,36.8,0.5,36C-7.1,35.1,-14.1,35.9,-17,31.9C-20,27.8,-18.7,19,-18.8,12.9C-18.9,6.7,-20.3,3.4,-20.7,-0.2C-21.1,-3.8,-20.5,-7.7,-20,-13.1C-19.5,-18.5,-19.1,-25.4,-15.8,-27.4C-12.5,-29.4,-6.2,-26.3,-0.4,-25.7C5.5,-25.1,11,-26.9,14.3,-24.9Z" width="100%" height="100%" transform="translate(50 50)" stroke-width="0" style="transition: all 0.3s ease 0s;"></path>
              </svg>