<?xml version="1.0" standalone="no"?>
<!DOCTYPE svg PUBLIC "-//W3C//DTD SVG 20010904//EN"
 "http://www.w3.org/TR/2001/REC-SVG-20010904/DTD/svg10.dtd">
<svg version="1.0" xmlns="http://www.w3.org/2000/svg"
 width="1920.000000pt" height="1920.000000pt" viewBox="0 0 1920.000000 1920.000000"
 preserveAspectRatio="xMidYMid meet">

<g transform="translate(0.000000,1920.000000) scale(0.100000,-0.100000)"
fill="#000000" stroke="none">
<path d="M14215 13293 c-381 -23 -711 -103 -984 -239 -517 -256 -850 -676
-950 -1199 -34 -175 -46 -378 -32 -551 20 -253 62 -416 156 -610 172 -353 495
-611 1008 -803 222 -83 378 -125 811 -217 568 -120 835 -307 892 -626 37 -204
-20 -401 -155 -536 -117 -117 -284 -186 -514 -213 -137 -16 -386 -6 -497 20
-367 85 -637 288 -835 629 -26 45 -49 82 -52 82 -4 0 -901 -467 -1031 -537
l-83 -45 37 -66 c219 -396 557 -709 989 -917 277 -133 536 -208 870 -251 161
-21 586 -24 755 -5 436 48 770 161 1053 354 509 347 767 907 744 1617 -20 600
-242 1027 -699 1337 -303 207 -633 332 -1143 434 -608 121 -817 210 -944 400
-114 170 -114 408 0 578 83 125 228 220 407 268 90 25 111 27 312 27 202 0
221 -2 314 -27 236 -63 406 -194 562 -429 l44 -68 208 108 c114 59 359 186
545 282 185 96 337 178 337 182 0 19 -167 252 -239 335 -198 225 -476 416
-779 533 -308 120 -723 177 -1107 153z"/>
<path d="M1581 10258 c-580 -1619 -1056 -2949 -1059 -2955 -3 -10 139 -13 689
-13 l694 0 199 590 199 590 1086 -2 1086 -3 192 -555 c106 -305 197 -570 203
-587 l12 -33 699 0 c384 0 699 1 699 3 0 1 -465 1330 -1034 2952 l-1033 2950
-789 3 -789 2 -1054 -2942z m1847 1705 c11 -49 179 -605 371 -1236 193 -632
351 -1153 351 -1158 0 -5 -319 -9 -771 -9 -729 0 -770 1 -765 18 168 534 689
2219 719 2325 51 182 64 190 95 60z"/>
<path d="M6447 11438 c-7 -1781 -4 -2016 29 -2249 110 -798 522 -1431 1128
-1736 409 -206 957 -297 1522 -253 659 51 1147 253 1520 628 338 340 564 809
644 1342 38 252 40 351 40 2212 l0 1818 -665 0 -665 0 -3 -1907 c-3 -2093 1
-1940 -62 -2157 -37 -129 -78 -221 -136 -310 -164 -250 -409 -406 -709 -451
-228 -35 -471 -5 -666 81 -206 91 -406 294 -508 515 -44 96 -80 216 -108 359
l-22 115 -3 1878 -4 1877 -663 0 -663 0 -6 -1762z"/>
<path d="M17515 8719 c-165 -24 -302 -93 -420 -213 -120 -121 -182 -243 -205
-402 -39 -272 32 -503 210 -685 122 -124 248 -186 425 -210 343 -45 660 111
799 394 58 119 76 205 76 357 0 157 -20 251 -77 369 -38 79 -59 108 -131 180
-48 47 -112 101 -144 119 -142 84 -345 118 -533 91z"/>
</g>
</svg>
